<svg width="26" height="8" viewBox="0 0 26 8" fill="none" xmlns="http://www.w3.org/2000/svg">
<path d="M16.5156 4C16.5156 5.94336 14.9434 7.51562 13 7.51562C11.0566 7.51562 9.48438 5.94336 9.48438 4C9.48438 2.05664 11.0566 0.484375 13 0.484375C14.9434 0.484375 16.5156 2.05664 16.5156 4ZM21.5938 0.484375C19.6504 0.484375 18.0781 2.05664 18.0781 4C18.0781 5.94336 19.6504 7.51562 21.5938 7.51562C23.5371 7.51562 25.1094 5.94336 25.1094 4C25.1094 2.05664 23.5371 0.484375 21.5938 0.484375ZM4.40625 0.484375C2.46289 0.484375 0.890625 2.05664 0.890625 4C0.890625 5.94336 2.46289 7.51562 4.40625 7.51562C6.34961 7.51562 7.92188 5.94336 7.92188 4C7.92188 2.05664 6.34961 0.484375 4.40625 0.484375Z" fill="#FECE43"/>
</svg>
