<svg width="19" height="19" viewBox="0 0 19 19" fill="none" xmlns="http://www.w3.org/2000/svg">
<path d="M17.9863 2.81487C18.1425 2.65866 18.1425 2.4054 17.9863 2.24919L16.7895 1.05237C16.6333 0.896164 16.38 0.896164 16.2238 1.05237L9.58988 7.68632C9.55083 7.72537 9.48751 7.72538 9.44846 7.68632L2.81451 1.05237C2.6583 0.896164 2.40503 0.896164 2.24882 1.05237L1.05201 2.24919C0.895798 2.4054 0.895798 2.65866 1.05201 2.81487L7.68596 9.44882C7.72501 9.48787 7.72501 9.55119 7.68596 9.59024L1.05201 16.2242C0.895798 16.3804 0.895798 16.6337 1.05201 16.7899L2.24882 17.9867C2.40503 18.1429 2.6583 18.1429 2.81451 17.9867L9.44845 11.3527C9.48751 11.3137 9.55082 11.3137 9.58988 11.3527L16.2238 17.9867C16.38 18.1429 16.6333 18.1429 16.7895 17.9867L17.9863 16.7899C18.1425 16.6337 18.1425 16.3804 17.9863 16.2242L11.3524 9.59025C11.3133 9.55119 11.3133 9.48787 11.3524 9.44882L17.9863 2.81487Z" fill="#912D2B"/>
</svg>
