<svg xmlns="http://www.w3.org/2000/svg" width="46" height="40" viewBox="0 0 46 40"><g><g opacity=".2"><path fill="#03d4b6" d="M11 40C4.925 40 0 35.075 0 29V11C0 4.925 4.925 0 11 0h24c6.075 0 11 4.925 11 11v18c0 6.075-4.925 11-11 11z"/></g><g><path fill="#03d4b6" d="M17.465 12.688c-.34-.886-.575-1.956-.636-3.282h12.623c-.061 1.326-.296 2.396-.636 3.281zm8.509 10.845c.982.895 2.114 1.928 2.818 3.716l-4.307-1.782a3.556 3.556 0 0 0-.641-.197V20c0 1.59 1.034 2.534 2.13 3.533zm-3.537 1.738c-.217.044-.431.11-.64.196L17.49 27.25c.703-1.788 1.836-2.821 2.817-3.716 1.096-.999 2.13-1.942 2.13-3.533zm4.484-7.765c1.592-1.45 3.743-3.412 3.94-8.1h1.42V8H14v1.406h1.42c.197 4.688 2.349 6.65 3.94 8.1 1.067.974 1.671 1.57 1.671 2.494 0 .925-.604 1.52-1.671 2.494-1.591 1.45-3.743 3.412-3.94 8.1H14V32h18.281v-1.406h-1.42c-.197-4.688-2.348-6.65-3.94-8.1-1.067-.974-1.671-1.57-1.671-2.494 0-.925.604-1.52 1.671-2.494z"/></g></g></svg>