<svg xmlns="http://www.w3.org/2000/svg" width="46" height="40" viewBox="0 0 46 40"><g><g opacity=".2"><path fill="#20a4f3" d="M11 40C4.925 40 0 35.075 0 29V11C0 4.925 4.925 0 11 0h24c6.075 0 11 4.925 11 11v18c0 6.075-4.925 11-11 11z"/></g><g><path fill="#20a4f3" d="M28.904 24.56c-1.831 0-3.32-1.305-3.32-2.91 0-1.606 1.49-2.911 3.32-2.911h6.07v-2.217c0-1.5-1.391-2.72-3.102-2.72h-16.77c-1.71 0-3.102 1.22-3.102 2.72v10.177c0 1.5 1.392 2.72 3.103 2.72h16.77c1.71 0 3.102-1.22 3.102-2.72V24.56z"/></g></g></svg>