<svg xmlns="http://www.w3.org/2000/svg" width="46" height="40" viewBox="0 0 46 40"><g><g opacity=".2"><path fill="#e60106" d="M11 40C4.925 40 0 35.075 0 29V11C0 4.925 4.925 0 11 0h24c6.075 0 11 4.925 11 11v18c0 6.075-4.925 11-11 11z"/></g><g><path fill="#e60106" d="M30.866 14.59a.656.656 0 0 0-.94-.168l-2.089 1.573a.641.641 0 0 0-.167.838c.528.902.799 1.869.799 2.874a5.81 5.81 0 0 1-5.801 5.801 5.81 5.81 0 0 1-5.8-5.8 5.806 5.806 0 0 1 5.155-5.763v1.895c0 .387.31.632.645.645.129 0 .27-.04.387-.13l5.156-3.866a.64.64 0 0 0 0-1.032l-5.156-3.91a.646.646 0 0 0-1.031.516v2.002C16.995 10.387 13 14.59 13 19.707c0 5.337 4.331 9.711 9.668 9.711 5.337 0 9.668-4.374 9.668-9.71a9.75 9.75 0 0 0-1.47-5.118z"/></g></g></svg>