<svg width="40" height="34" viewBox="0 0 40 34" fill="none" xmlns="http://www.w3.org/2000/svg">
<path d="M36.5975 18.9478V30.5413C36.5975 30.7125 36.524 30.8766 36.393 30.9976C36.2621 31.1186 36.0845 31.1865 35.8994 31.1865H4.08445C3.89929 31.1865 3.72172 31.1186 3.59079 30.9976C3.45986 30.8766 3.38631 30.7125 3.38631 30.5413V3.2361C3.38631 3.06498 3.45986 2.90087 3.59079 2.77988C3.72172 2.65888 3.89929 2.5909 4.08445 2.5909H26.3271C26.5133 2.58977 26.6916 2.52096 26.8234 2.39935L28.2088 1.09382C28.3041 1.00276 28.3683 0.887771 28.3934 0.763205C28.4185 0.63864 28.4033 0.510015 28.3498 0.393363C28.2963 0.276711 28.2068 0.177202 28.0925 0.107249C27.9782 0.0372967 27.8441 -5.37939e-06 27.707 5.81867e-10H3.8772C3.00926 5.81853e-10 2.17686 0.318638 1.56313 0.885822C0.9494 1.45301 0.604614 2.22227 0.604614 3.02439V30.748C0.604614 31.5501 0.9494 32.3194 1.56313 32.8866C2.17686 33.4538 3.00926 33.7724 3.8772 33.7724H36.1121C36.98 33.7724 37.8124 33.4538 38.4261 32.8866C39.0399 32.3194 39.3847 31.5501 39.3847 30.748V18.9478C39.3847 18.7767 39.3111 18.6126 39.1802 18.4916C39.0493 18.3706 38.8717 18.3026 38.6865 18.3026H37.2793C37.097 18.3066 36.9236 18.3763 36.7962 18.4969C36.6688 18.6174 36.5975 18.7793 36.5975 18.9478Z" fill="#081F3F"/>
<path d="M38.7246 13.8418H33.9848C33.8913 13.8423 33.7988 13.86 33.7127 13.8937C33.6266 13.9275 33.5485 13.9766 33.4831 14.0384L21.9963 24.8808C21.8645 25.0024 21.6862 25.0712 21.5 25.0723H19.2419C19.1037 25.0733 18.9683 25.0364 18.8528 24.9662C18.7373 24.896 18.647 24.7957 18.5933 24.678C18.5395 24.5603 18.5248 24.4306 18.5509 24.3052C18.5771 24.1797 18.6429 24.0643 18.7401 23.9735L29.5396 13.8115L32.234 11.2559C32.3658 11.1343 32.5441 11.0655 32.7304 11.0644H35.7357C35.9204 11.063 36.0972 10.9946 36.2278 10.8739C36.3584 10.7532 36.4324 10.5899 36.4338 10.4192V4.85932C36.4349 4.73036 36.3942 4.60406 36.3169 4.49671C36.2396 4.38936 36.1292 4.30589 36.0001 4.25706C35.8709 4.20824 35.7289 4.1963 35.5923 4.22278C35.4557 4.24927 35.3309 4.31297 35.2339 4.40566L25.2853 13.8266L13.553 24.8758C13.4881 24.9382 13.4102 24.9878 13.3239 25.0216C13.2377 25.0554 13.1449 25.0726 13.0512 25.0723H10.4714C10.3792 25.073 10.2879 25.0568 10.2025 25.0247C10.1172 24.9926 10.0396 24.9451 9.97416 24.8852C9.90875 24.8252 9.85685 24.7538 9.82143 24.6752C9.786 24.5966 9.76776 24.5123 9.76776 24.4271V11.7247C9.76776 11.5536 9.84132 11.3895 9.97225 11.2685C10.1032 11.1475 10.2807 11.0795 10.4659 11.0795H18.0092C18.1469 11.0795 18.2816 11.1172 18.3962 11.1878C18.5109 11.2583 18.6003 11.3587 18.6534 11.4761C18.7064 11.5936 18.7207 11.723 18.6944 11.8479C18.6681 11.9729 18.6024 12.0878 18.5055 12.1784L16.9402 13.6603C16.8742 13.7211 16.796 13.7694 16.7099 13.8022C16.6238 13.8351 16.5315 13.8519 16.4384 13.8518H13.4658C13.2806 13.8518 13.103 13.9198 12.9721 14.0408C12.8412 14.1618 12.7676 14.3259 12.7676 14.4971V20.0922C12.766 20.2208 12.8064 20.3468 12.8834 20.4539C12.9604 20.561 13.0706 20.6442 13.1995 20.6926C13.3284 20.741 13.4701 20.7524 13.6061 20.7253C13.7422 20.6983 13.8662 20.634 13.9621 20.5408L35.4193 0.237038C35.5511 0.115424 35.7294 0.0466171 35.9157 0.045491H38.6919C38.7836 0.0448265 38.8745 0.0608582 38.9595 0.0926703C39.0445 0.124482 39.1219 0.171455 39.1872 0.230901C39.2525 0.290346 39.3045 0.361103 39.3403 0.439131C39.376 0.517158 39.3948 0.600926 39.3955 0.685656V13.2016C39.3943 13.3676 39.3238 13.5267 39.1989 13.6459C39.074 13.7651 38.9041 13.8353 38.7246 13.8418Z" fill="#081F3F"/>
</svg>
