<svg xmlns="http://www.w3.org/2000/svg" width="213" height="26" viewBox="0 0 213 26"><g><g><g><g><g><g><g><path fill="#fff" d="M54.297 8.575L45.9 16.97c-.515.489-1.103.742-1.773.742H40.38l-.081-.072a.218.218 0 0 1-.063-.163V8.367l.063-.09a.212.212 0 0 1 .153-.064h1.693c.054 0 .117.018.153.054l.064.063.008 7.5h1.376a.606.606 0 0 0 .452-.189l7.465-7.419 2.443-.01c.09 0 .181.055.217.136.036.11 0 .2-.027.227z"/></g></g><g><g><path fill="#fff" d="M58.948 8.448v9.102l-.127.145-1.873.018-.081-.072c-.019-.028-.064-.09-.064-.163V8.367l.064-.09a.27.27 0 0 1 .163-.064h1.764l.08.054a.268.268 0 0 1 .074.18z"/></g></g></g><g><g><g><path fill="#fff" d="M72.682 12.167c0 .19-.054.334-.18.461a.63.63 0 0 1-.444.18h-8.515v-2.713h8.515c.163 0 .316.063.434.18a.61.61 0 0 1 .19.453zm1.692 1.266c.308-.443.453-.95.453-1.52v-.922c0-.76-.272-1.43-.815-1.964a2.652 2.652 0 0 0-1.954-.814H61.626a.199.199 0 0 0-.154.063l-.073.09v9.112c0 .063.027.118.073.163l.081.072h1.756c.063 0 .117-.027.18-.081l.054-.073v-2.868h7.565l1.393 2.922c.018.019.082.1.19.1h1.873a.205.205 0 0 0 .19-.127.236.236 0 0 0 .027-.171l-1.439-3.04.173-.109c.352-.208.642-.489.86-.833z"/></g></g></g><g><g><g><path fill="#fff" d="M90.705 8.448V9.94l-.062.082a.212.212 0 0 1-.155.063h-5.42v7.464l-.072.1a.218.218 0 0 1-.154.063h-1.764l-.081-.072a.233.233 0 0 1-.073-.172v-7.383h-5.492l-.072-.055a.251.251 0 0 1-.082-.171V8.375l.136-.153 13.147-.01.081.064a.256.256 0 0 1 .063.172z"/></g></g><g><g><path fill="#fff" d="M106.603 8.448v6.487c0 .76-.272 1.421-.814 1.964a2.692 2.692 0 0 1-1.964.814h-7.881c-.76 0-1.42-.28-1.963-.814-.543-.552-.824-1.213-.824-1.964V8.367l.073-.09a.238.238 0 0 1 .172-.064h1.755l.072.054a.241.241 0 0 1 .082.18v6.742a.6.6 0 0 0 .18.452c.128.127.272.19.453.19h7.881a.606.606 0 0 0 .452-.19.575.575 0 0 0 .181-.452V8.367l.073-.1a.251.251 0 0 1 .163-.054h1.755l.09.072c.045.045.064.1.064.163z"/></g></g><g><g><path fill="#fff" d="M139.066 16.057v1.484l-.127.154-10.513.018c-.778 0-1.438-.28-1.982-.814a2.735 2.735 0 0 1-.805-1.972v-6.56l.073-.1a.228.228 0 0 1 .154-.054h1.755l.1.063a.284.284 0 0 1 .062.172v6.74c0 .182.055.327.181.462.127.118.272.18.462.18h10.486l.073.056c.072.072.081.135.081.171z"/></g></g><g><g><path fill="#fff" d="M123.188 17.55l-.055.073c-.054.054-.118.09-.18.09h-1.765l-.082-.081c-.045-.036-.063-.091-.063-.154v-7.383h-1.384a.668.668 0 0 0-.453.19l-7.5 7.419-2.407.01c-.1 0-.181-.064-.217-.164a.236.236 0 0 1 .054-.235l8.37-8.37c.515-.488 1.112-.732 1.782-.732h3.664a.25.25 0 0 1 .163.054l.054.063z"/></g></g></g><g><g><g><path fill="#fff" d="M162.003 15.189a.639.639 0 0 1-.19.452.607.607 0 0 1-.453.19h-8.505v-5.745h8.505c.18 0 .335.063.453.199.126.118.19.271.19.443zm1.33-6.162a2.692 2.692 0 0 0-1.973-.814h-10.423a.223.223 0 0 0-.163.072l-.063.082v9.102c0 .072.027.127.073.18l.072.064h10.504c.769 0 1.43-.28 1.973-.814a2.726 2.726 0 0 0 .814-1.972V10.99c0-.76-.28-1.43-.814-1.964z"/></g></g></g><g><g><g><path fill="#fff" d="M180.723 8.448v9.102l-.072.091a.23.23 0 0 1-.164.072h-1.755l-.09-.081a.217.217 0 0 1-.064-.154v-7.383h-1.384a.632.632 0 0 0-.443.19l-7.501 7.419-2.407.01a.222.222 0 0 1-.217-.155c-.036-.08-.018-.171.055-.244l8.369-8.37c.516-.488 1.112-.732 1.764-.732h3.755l.082.054a.29.29 0 0 1 .072.18z"/></g></g></g><g><g><g><path fill="#fff" d="M196.61 14.8v.127c0 .76-.28 1.42-.813 1.962a2.694 2.694 0 0 1-1.964.824h-9.98l-.081-.072a.232.232 0 0 1-.072-.172v-1.493l.072-.09c.036-.046.09-.064.153-.064h9.908a.602.602 0 0 0 .452-.19.632.632 0 0 0 .181-.443v-.66c0-.173-.063-.308-.19-.453a.619.619 0 0 0-.443-.19h-7.88c-.76 0-1.421-.271-1.964-.805a2.686 2.686 0 0 1-.814-1.964v-.135c0-.752.271-1.421.814-1.955a2.672 2.672 0 0 1 1.964-.814h9.979l.073.054a.225.225 0 0 1 .072.172v1.502l-.063.082a.211.211 0 0 1-.154.063h-9.907a.576.576 0 0 0-.444.19.61.61 0 0 0-.19.452v.652c0 .172.064.325.19.452a.568.568 0 0 0 .444.181h7.88c.77 0 1.42.28 1.964.814.533.534.814 1.204.814 1.972z"/></g></g><g><g><path fill="#fff" d="M212.499 17.56l-.064.072c-.054.054-.108.081-.171.081h-1.756l-.09-.081a.22.22 0 0 1-.064-.154v-3.574h-9.156v3.655l-.054.073c-.055.054-.109.081-.172.081h-1.755l-.09-.072a.219.219 0 0 1-.064-.163V8.367l.072-.1c.037-.036.1-.054.163-.054h1.755l.073.054a.232.232 0 0 1 .072.18v3.566h9.156V8.358l.064-.082a.24.24 0 0 1 .171-.063h1.675c.063 0 .126.018.162.054l.055.063z"/></g></g></g></g></g><g><g><g><g><g><path fill="#fff" d="M25.538 14.538v8.904a.495.495 0 0 1-.495.495H2.485a.495.495 0 0 1-.495-.495V2.484c0-.273.222-.495.495-.495h15.77c.134 0 .261-.053.355-.149l.979-.999A.495.495 0 0 0 19.235 0h-16.9A2.335 2.335 0 0 0 .002 2.336V23.59a2.335 2.335 0 0 0 2.335 2.336h22.856a2.336 2.336 0 0 0 2.336-2.336v-9.052a.495.495 0 0 0-.495-.495h-1a.495.495 0 0 0-.495.495z"/></g></g></g><g><g><g><g><g><g><path fill="#fff" d="M27.046 10.622h-3.36a.496.496 0 0 0-.354.148l-8.148 8.32a.493.493 0 0 1-.35.149l-1.601.01a.495.495 0 0 1-.357-.841l7.657-7.8 1.91-1.958a.495.495 0 0 1 .354-.15h2.129a.495.495 0 0 0 .495-.494V3.729a.495.495 0 0 0-.85-.346l-7.055 7.225-8.319 8.48a.497.497 0 0 1-.353.15l-1.832.005a.495.495 0 0 1-.496-.495L6.51 8.995c0-.273.22-.495.494-.495l5.349-.005c.438 0 .66.528.354.841l-1.112 1.137a.498.498 0 0 1-.354.149H9.132a.495.495 0 0 0-.495.494v4.293c0 .443.538.662.848.345L24.715.185a.495.495 0 0 1 .353-.15l1.965-.004c.273 0 .495.221.496.494l.012 9.601a.495.495 0 0 1-.495.496z"/></g></g></g></g></g></g></g></g></g></g></svg>