<svg width="204" height="12" viewBox="0 0 204 12" fill="none" xmlns="http://www.w3.org/2000/svg">
<path d="M16.864 1.38936L6.94263 10.5634C6.66847 10.8193 6.34233 11.0228 5.98293 11.162C5.62352 11.3013 5.2379 11.3736 4.84819 11.3749H0.424755L0.326578 11.2942C0.301089 11.2715 0.281107 11.244 0.267945 11.2136C0.254783 11.1832 0.248742 11.1505 0.250218 11.1178V1.16757L0.326578 1.0718C0.349941 1.0495 0.377912 1.03177 0.40883 1.01965C0.439748 1.00753 0.472985 1.00127 0.50657 1.00124H2.50829C2.5744 0.99967 2.63871 1.02128 2.68829 1.06172L2.76465 1.13229V9.31831H4.40093C4.50239 9.32075 4.60329 9.30363 4.69719 9.26804C4.7911 9.23246 4.87596 9.1792 4.94636 9.11165L13.7605 1.01132H16.6458C16.6991 1.01097 16.7514 1.0245 16.7967 1.05036C16.8421 1.07621 16.8786 1.11334 16.9022 1.1575C16.9149 1.19633 16.9181 1.2373 16.9115 1.27742C16.9049 1.31754 16.8887 1.35579 16.864 1.38936Z" fill="#081F3F"/>
<path d="M22.3564 1.25822V11.1933L22.2037 11.3546H19.9947L19.8966 11.274C19.8534 11.2231 19.8268 11.1619 19.8202 11.0976V1.16749L19.8966 1.07172C19.9501 1.02954 20.0172 1.00476 20.0875 1.00116H22.1765L22.2692 1.06164C22.3244 1.11446 22.3556 1.1848 22.3564 1.25822Z" fill="#081F3F"/>
<path d="M40.5794 6.70199C40.9449 6.21574 41.1357 5.63558 41.1248 5.04361V4.03548C41.1248 3.23336 40.78 2.46409 40.1663 1.89691C39.5526 1.32972 38.7202 1.01109 37.8522 1.01109H25.5201C25.4862 1.0091 25.4523 1.01445 25.421 1.0267C25.3898 1.03895 25.3621 1.05777 25.3401 1.08166L25.2528 1.17742V11.1176C25.2534 11.151 25.2614 11.1839 25.2765 11.2142C25.2915 11.2446 25.3131 11.2718 25.3401 11.294L25.4328 11.3747H27.5054C27.5879 11.371 27.6659 11.3385 27.7236 11.2839L27.7836 11.2033V8.07304H36.7232L38.3595 11.2638C38.3868 11.2964 38.4214 11.3231 38.461 11.3423C38.5005 11.3614 38.544 11.3725 38.5886 11.3747H40.7976C40.846 11.3754 40.8936 11.3622 40.9336 11.3369C40.9737 11.3117 41.0043 11.2755 41.0212 11.2335C41.0584 11.1778 41.0702 11.1107 41.0539 11.047L39.3576 7.73027L39.5594 7.6093C39.9726 7.38608 40.3223 7.07505 40.5794 6.70199ZM38.5831 5.31581C38.5886 5.40943 38.5719 5.50302 38.5342 5.59007C38.4965 5.67712 38.4387 5.75555 38.3649 5.81987C38.2943 5.88677 38.2092 5.93927 38.1153 5.97399C38.0214 6.00872 37.9206 6.02489 37.8195 6.0215H27.7836V3.05759H37.8413C37.9368 3.05622 38.0315 3.07296 38.1197 3.10677C38.2079 3.14058 38.2877 3.19076 38.354 3.25418C38.4292 3.31801 38.4886 3.39608 38.5282 3.48308C38.5677 3.57008 38.5864 3.66394 38.5831 3.75825V5.31581Z" fill="#081F3F"/>
<path d="M59.871 1.25837V2.90162L59.8001 2.99235C59.7759 3.01503 59.747 3.03297 59.7151 3.0451C59.6833 3.05722 59.6491 3.06329 59.6146 3.06293H53.2113V11.2086L53.1295 11.3195C53.1051 11.342 53.0762 11.3597 53.0443 11.3718C53.0125 11.384 52.9784 11.3902 52.944 11.3901H50.8768L50.7841 11.3094C50.7561 11.2858 50.7338 11.257 50.7188 11.2248C50.7037 11.1927 50.6962 11.158 50.6968 11.1229V3.05788H44.2062L44.1244 2.9974C44.0663 2.94964 44.0311 2.8826 44.0262 2.81089V1.1878L44.1899 1.02145H59.7183L59.8164 1.09203C59.8524 1.14109 59.8715 1.19909 59.871 1.25837Z" fill="#081F3F"/>
<path d="M78.6502 1.25807V8.3402C78.6502 9.14232 78.3054 9.91159 77.6917 10.4788C77.078 11.046 76.2456 11.3646 75.3776 11.3646H66.0617C65.1973 11.3541 64.3714 11.0322 63.7601 10.4672C63.1488 9.90228 62.8004 9.13907 62.7891 8.3402V1.16734L62.8764 1.07157C62.931 1.02439 63.0035 0.999042 63.0782 1.00101H65.1508L65.2381 1.06149C65.269 1.08569 65.2937 1.11581 65.3107 1.14976C65.3276 1.18371 65.3364 1.22068 65.3363 1.25807V8.61743C65.3298 8.71071 65.3454 8.80418 65.3822 8.89126C65.4189 8.97834 65.4759 9.05692 65.549 9.1215C65.6192 9.1893 65.704 9.24274 65.798 9.27834C65.8919 9.31394 65.9929 9.33091 66.0944 9.32816H75.4049C75.5064 9.3306 75.6073 9.31349 75.7012 9.27791C75.7951 9.24233 75.8799 9.18905 75.9503 9.1215C76.0241 9.05735 76.0814 8.97884 76.1182 8.89164C76.155 8.80445 76.1703 8.71077 76.1631 8.61743V1.16734L76.2503 1.06149C76.3035 1.01996 76.3716 0.998376 76.4412 1.00101H78.5139L78.6229 1.08166C78.6555 1.13528 78.6652 1.19818 78.6502 1.25807Z" fill="#081F3F"/>
<path d="M117.005 9.56533V11.1884L116.852 11.3548H104.433C103.565 11.3548 102.732 11.0361 102.119 10.4689C101.505 9.90175 101.16 9.13248 101.16 8.33036V1.1676L101.242 1.06176C101.293 1.02098 101.36 0.999416 101.427 1.00127H103.5L103.615 1.07183C103.662 1.12423 103.689 1.18997 103.691 1.25833V8.61768C103.688 8.71054 103.706 8.80292 103.743 8.88945C103.779 8.97599 103.834 9.05496 103.904 9.12175C104.051 9.2507 104.246 9.32129 104.449 9.31834H116.819L116.907 9.37883C116.936 9.40191 116.96 9.43042 116.977 9.46253C116.994 9.49464 117.003 9.52965 117.005 9.56533Z" fill="#081F3F"/>
<path d="M98.242 11.1934L98.1821 11.2741C98.1278 11.3317 98.0516 11.3678 97.9693 11.3749H95.8803L95.7876 11.2842C95.7614 11.2641 95.7408 11.2385 95.7275 11.2096C95.7142 11.1806 95.7087 11.1492 95.7113 11.1178V3.05277H94.075C93.871 3.0536 93.6754 3.12771 93.5295 3.25944L84.6936 11.3648H81.8464C81.7886 11.363 81.7328 11.3445 81.6868 11.312C81.6409 11.2794 81.6071 11.2345 81.5901 11.1833C81.5747 11.1399 81.5726 11.0933 81.5842 11.0488C81.5957 11.0043 81.6204 10.9636 81.6555 10.9313L91.5442 1.7926C91.8207 1.53748 92.1491 1.33535 92.5104 1.19781C92.8717 1.06027 93.2588 0.990036 93.6495 0.991142H97.9802C98.0495 0.990325 98.117 1.0117 98.1711 1.05163L98.2366 1.1222L98.242 11.1934Z" fill="#081F3F"/>
<path d="M145.667 1.8931C145.365 1.60642 145.002 1.37986 144.602 1.2273C144.201 1.07475 143.771 0.999419 143.338 1.00594H131.055C131.018 1.0061 130.982 1.01335 130.948 1.02723C130.914 1.04112 130.884 1.06133 130.859 1.0866L130.788 1.17229V11.1124C130.789 11.1848 130.818 11.2544 130.87 11.309L130.957 11.3796H143.365C144.233 11.3796 145.066 11.061 145.679 10.4938C146.293 9.9266 146.638 9.15733 146.638 8.35522V4.06058C146.645 3.65721 146.562 3.25686 146.395 2.88413C146.228 2.51139 145.98 2.17414 145.667 1.8931ZM144.096 8.62237C144.099 8.71609 144.08 8.80924 144.041 8.89598C144.003 8.98272 143.945 9.06118 143.873 9.12643C143.802 9.19424 143.718 9.24768 143.624 9.28328C143.53 9.31888 143.429 9.33585 143.327 9.3331H133.291V3.04742H143.338C143.441 3.04206 143.544 3.05884 143.638 3.09646C143.733 3.13407 143.817 3.19147 143.884 3.26416C143.959 3.32736 144.019 3.40546 144.057 3.4927C144.096 3.57994 144.113 3.6741 144.107 3.76822L144.096 8.62237Z" fill="#081F3F"/>
<path d="M166.213 1.25821V11.1934L166.126 11.2942C166.102 11.3191 166.073 11.3391 166.04 11.3529C166.007 11.3668 165.971 11.3743 165.935 11.3748H163.863L163.754 11.2841C163.73 11.2622 163.712 11.2362 163.7 11.2077C163.687 11.1791 163.682 11.1485 163.683 11.1177V3.05268H162.046C161.945 3.04993 161.844 3.06691 161.75 3.10251C161.656 3.13811 161.571 3.19154 161.501 3.25935L152.638 11.3597H149.796C149.739 11.3609 149.683 11.3448 149.637 11.3138C149.59 11.2829 149.556 11.2388 149.54 11.1883C149.518 11.144 149.513 11.0944 149.524 11.047C149.536 10.9997 149.565 10.9572 149.605 10.9262L159.488 1.78749C160.041 1.27714 160.79 0.989126 161.572 0.986023H166.012L166.104 1.04651C166.17 1.10099 166.209 1.17709 166.213 1.25821Z" fill="#081F3F"/>
<path d="M184.982 8.194V8.33009C184.973 9.12977 184.626 9.89447 184.014 10.46C183.402 11.0254 182.574 11.3466 181.709 11.3545H169.911L169.813 11.2738C169.787 11.2493 169.766 11.2201 169.752 11.1881C169.738 11.1561 169.731 11.1219 169.732 11.0873V9.45416L169.813 9.35839C169.836 9.3341 169.865 9.31506 169.897 9.30281C169.929 9.29056 169.964 9.28544 169.999 9.28783H181.698C181.8 9.29155 181.901 9.27502 181.995 9.23936C182.089 9.2037 182.174 9.14975 182.244 9.08116C182.316 9.01548 182.372 8.93681 182.41 8.8501C182.447 8.76338 182.465 8.67045 182.462 8.5771V7.85627C182.462 7.66768 182.381 7.48672 182.238 7.35221C182.167 7.28538 182.082 7.2326 181.988 7.19707C181.895 7.16154 181.794 7.14402 181.693 7.14555H172.393C171.962 7.15058 171.533 7.07505 171.134 6.92347C170.735 6.7719 170.373 6.54741 170.07 6.26344C169.76 5.98555 169.516 5.6522 169.351 5.28383C169.185 4.91546 169.103 4.51983 169.11 4.12116V3.97498C169.11 3.17286 169.455 2.4036 170.068 1.83641C170.682 1.26923 171.514 0.950592 172.382 0.950592H184.18L184.267 1.01108C184.295 1.03471 184.316 1.06367 184.331 1.0959C184.345 1.12813 184.351 1.16285 184.349 1.19758V2.90132L184.278 2.99205C184.254 3.01473 184.225 3.03267 184.193 3.0448C184.161 3.05692 184.127 3.06298 184.093 3.06262H172.393C172.291 3.05565 172.189 3.07068 172.094 3.10654C171.999 3.14241 171.915 3.19813 171.848 3.26929C171.773 3.33312 171.713 3.41119 171.674 3.49819C171.634 3.58519 171.615 3.67905 171.619 3.77336V4.48409C171.616 4.57827 171.636 4.67182 171.675 4.75868C171.715 4.84553 171.773 4.92373 171.848 4.98816C171.916 5.05719 172.001 5.11079 172.096 5.14486C172.19 5.17893 172.292 5.19257 172.393 5.18473H181.698C182.566 5.18473 183.399 5.50337 184.012 6.07055C184.626 6.63774 184.971 7.407 184.971 8.20912L184.982 8.194Z" fill="#081F3F"/>
<path d="M203.75 11.2031L203.679 11.2837C203.653 11.3114 203.621 11.3337 203.586 11.3493C203.55 11.3649 203.511 11.3735 203.472 11.3745H201.415L201.312 11.2837C201.288 11.2621 201.269 11.2363 201.255 11.2077C201.242 11.1791 201.236 11.1484 201.235 11.1174V7.21593H190.403V11.2031L190.338 11.2837C190.313 11.3107 190.282 11.3327 190.247 11.3483C190.212 11.3639 190.175 11.3728 190.136 11.3745H188.063L187.954 11.2938C187.929 11.2711 187.909 11.2436 187.896 11.2132C187.882 11.1827 187.876 11.1501 187.878 11.1174V1.16715L187.965 1.0613C188.018 1.01932 188.086 0.997677 188.156 1.00082H190.229L190.316 1.0613C190.345 1.086 190.369 1.11647 190.384 1.15048C190.399 1.18448 190.405 1.22117 190.403 1.25788V5.14926H201.219V1.15707L201.295 1.07138C201.322 1.0473 201.354 1.02858 201.388 1.01643C201.423 1.00428 201.46 0.998969 201.497 1.00082H203.472C203.543 0.9974 203.613 1.019 203.668 1.0613L203.728 1.13186L203.75 11.2031Z" fill="#081F3F"/>
</svg>
