<svg width="204" height="57" viewBox="0 0 204 57" fill="none" xmlns="http://www.w3.org/2000/svg">
<path d="M16.864 46.3894L6.94263 55.5634C6.66847 55.8193 6.34233 56.0228 5.98293 56.162C5.62352 56.3013 5.2379 56.3736 4.84819 56.3749H0.424755L0.326578 56.2942C0.301089 56.2715 0.281107 56.244 0.267945 56.2136C0.254783 56.1832 0.248742 56.1505 0.250218 56.1178V46.1676L0.326578 46.0718C0.349941 46.0495 0.377912 46.0318 0.40883 46.0197C0.439748 46.0075 0.472985 46.0013 0.50657 46.0012H2.50829C2.5744 45.9997 2.63871 46.0213 2.68829 46.0617L2.76465 46.1323V54.3183H4.40093C4.50239 54.3208 4.60329 54.3036 4.69719 54.268C4.7911 54.2325 4.87596 54.1792 4.94636 54.1116L13.7605 46.0113H16.6458C16.6991 46.011 16.7514 46.0245 16.7967 46.0504C16.8421 46.0762 16.8786 46.1133 16.9022 46.1575C16.9149 46.1963 16.9181 46.2373 16.9115 46.2774C16.9049 46.3175 16.8887 46.3558 16.864 46.3894Z" fill="#081F3F"/>
<path d="M22.3564 46.2582V56.1933L22.2037 56.3546H19.9947L19.8966 56.274C19.8534 56.2231 19.8268 56.1619 19.8202 56.0976V46.1675L19.8966 46.0717C19.9501 46.0295 20.0172 46.0048 20.0875 46.0012H22.1765L22.2692 46.0616C22.3244 46.1145 22.3556 46.1848 22.3564 46.2582Z" fill="#081F3F"/>
<path d="M40.5794 51.702C40.9449 51.2157 41.1357 50.6356 41.1248 50.0436V49.0355C41.1248 48.2334 40.78 47.4641 40.1663 46.8969C39.5526 46.3297 38.7202 46.0111 37.8522 46.0111H25.5201C25.4862 46.0091 25.4523 46.0144 25.421 46.0267C25.3898 46.039 25.3621 46.0578 25.3401 46.0817L25.2528 46.1774V56.1176C25.2534 56.151 25.2614 56.1839 25.2765 56.2142C25.2915 56.2446 25.3131 56.2718 25.3401 56.294L25.4328 56.3747H27.5054C27.5879 56.371 27.6659 56.3385 27.7236 56.2839L27.7836 56.2033V53.073H36.7232L38.3595 56.2638C38.3868 56.2964 38.4214 56.3231 38.461 56.3423C38.5005 56.3614 38.544 56.3725 38.5886 56.3747H40.7976C40.846 56.3754 40.8936 56.3622 40.9336 56.3369C40.9737 56.3117 41.0043 56.2755 41.0212 56.2335C41.0584 56.1778 41.0702 56.1107 41.0539 56.047L39.3576 52.7303L39.5594 52.6093C39.9726 52.3861 40.3223 52.075 40.5794 51.702ZM38.5831 50.3158C38.5886 50.4094 38.5719 50.503 38.5342 50.5901C38.4965 50.6771 38.4387 50.7555 38.3649 50.8199C38.2943 50.8868 38.2092 50.9393 38.1153 50.974C38.0214 51.0087 37.9206 51.0249 37.8195 51.0215H27.7836V48.0576H37.8413C37.9368 48.0562 38.0315 48.073 38.1197 48.1068C38.2079 48.1406 38.2877 48.1908 38.354 48.2542C38.4292 48.318 38.4886 48.3961 38.5282 48.4831C38.5677 48.5701 38.5864 48.6639 38.5831 48.7582V50.3158Z" fill="#081F3F"/>
<path d="M59.871 46.2584V47.9016L59.8001 47.9924C59.7759 48.015 59.747 48.033 59.7151 48.0451C59.6833 48.0572 59.6491 48.0633 59.6146 48.0629H53.2113V56.2086L53.1295 56.3195C53.1051 56.342 53.0762 56.3597 53.0443 56.3718C53.0125 56.384 52.9784 56.3902 52.944 56.3901H50.8768L50.7841 56.3094C50.7561 56.2858 50.7338 56.257 50.7188 56.2248C50.7037 56.1927 50.6962 56.158 50.6968 56.1229V48.0579H44.2062L44.1244 47.9974C44.0663 47.9496 44.0311 47.8826 44.0262 47.8109V46.1878L44.1899 46.0215H59.7183L59.8164 46.092C59.8524 46.1411 59.8715 46.1991 59.871 46.2584Z" fill="#081F3F"/>
<path d="M78.6502 46.2581V53.3402C78.6502 54.1423 78.3054 54.9116 77.6917 55.4788C77.078 56.046 76.2456 56.3646 75.3776 56.3646H66.0617C65.1973 56.3541 64.3714 56.0322 63.7601 55.4672C63.1488 54.9023 62.8004 54.1391 62.7891 53.3402V46.1673L62.8764 46.0716C62.931 46.0244 63.0035 45.999 63.0782 46.001H65.1508L65.2381 46.0615C65.269 46.0857 65.2937 46.1158 65.3107 46.1498C65.3276 46.1837 65.3364 46.2207 65.3363 46.2581V53.6174C65.3298 53.7107 65.3454 53.8042 65.3822 53.8913C65.4189 53.9783 65.4759 54.0569 65.549 54.1215C65.6192 54.1893 65.704 54.2427 65.798 54.2783C65.8919 54.3139 65.9929 54.3309 66.0944 54.3282H75.4049C75.5064 54.3306 75.6073 54.3135 75.7012 54.2779C75.7951 54.2423 75.8799 54.1891 75.9503 54.1215C76.0241 54.0573 76.0814 53.9788 76.1182 53.8916C76.155 53.8045 76.1703 53.7108 76.1631 53.6174V46.1673L76.2503 46.0615C76.3035 46.02 76.3716 45.9984 76.4412 46.001H78.5139L78.6229 46.0817C78.6555 46.1353 78.6652 46.1982 78.6502 46.2581Z" fill="#081F3F"/>
<path d="M117.005 54.5653V56.1884L116.852 56.3548H104.433C103.565 56.3548 102.732 56.0361 102.119 55.4689C101.505 54.9018 101.16 54.1325 101.16 53.3304V46.1676L101.242 46.0618C101.293 46.021 101.36 45.9994 101.427 46.0013H103.5L103.615 46.0718C103.662 46.1242 103.689 46.19 103.691 46.2583V53.6177C103.688 53.7105 103.706 53.8029 103.743 53.8895C103.779 53.976 103.834 54.055 103.904 54.1218C104.051 54.2507 104.246 54.3213 104.449 54.3183H116.819L116.907 54.3788C116.936 54.4019 116.96 54.4304 116.977 54.4625C116.994 54.4946 117.003 54.5296 117.005 54.5653Z" fill="#081F3F"/>
<path d="M98.242 56.1934L98.1821 56.2741C98.1278 56.3317 98.0516 56.3678 97.9693 56.3749H95.8803L95.7876 56.2842C95.7614 56.2641 95.7408 56.2385 95.7275 56.2096C95.7142 56.1806 95.7087 56.1492 95.7113 56.1178V48.0528H94.075C93.871 48.0536 93.6754 48.1277 93.5295 48.2594L84.6936 56.3648H81.8464C81.7886 56.363 81.7328 56.3445 81.6868 56.312C81.6409 56.2794 81.6071 56.2345 81.5901 56.1833C81.5747 56.1399 81.5726 56.0933 81.5842 56.0488C81.5957 56.0043 81.6204 55.9636 81.6555 55.9313L91.5442 46.7926C91.8207 46.5375 92.1491 46.3353 92.5104 46.1978C92.8717 46.0603 93.2588 45.99 93.6495 45.9911H97.9802C98.0495 45.9903 98.117 46.0117 98.1711 46.0516L98.2366 46.1222L98.242 56.1934Z" fill="#081F3F"/>
<path d="M145.667 46.8931C145.365 46.6064 145.002 46.3799 144.602 46.2273C144.201 46.0747 143.771 45.9994 143.338 46.0059H131.055C131.018 46.0061 130.982 46.0134 130.948 46.0272C130.914 46.0411 130.884 46.0613 130.859 46.0866L130.788 46.1723V56.1124C130.789 56.1848 130.818 56.2544 130.87 56.309L130.957 56.3796H143.365C144.233 56.3796 145.066 56.061 145.679 55.4938C146.293 54.9266 146.638 54.1573 146.638 53.3552V49.0606C146.645 48.6572 146.562 48.2569 146.395 47.8841C146.228 47.5114 145.98 47.1741 145.667 46.8931ZM144.096 53.6224C144.099 53.7161 144.08 53.8092 144.041 53.896C144.003 53.9827 143.945 54.0612 143.873 54.1264C143.802 54.1942 143.718 54.2477 143.624 54.2833C143.53 54.3189 143.429 54.3359 143.327 54.3331H133.291V48.0474H143.338C143.441 48.0421 143.544 48.0588 143.638 48.0965C143.733 48.1341 143.817 48.1915 143.884 48.2642C143.959 48.3274 144.019 48.4055 144.057 48.4927C144.096 48.5799 144.113 48.6741 144.107 48.7682L144.096 53.6224Z" fill="#081F3F"/>
<path d="M166.213 46.2582V56.1934L166.126 56.2942C166.102 56.3191 166.073 56.3391 166.04 56.3529C166.007 56.3668 165.971 56.3743 165.935 56.3748H163.863L163.754 56.2841C163.73 56.2622 163.712 56.2362 163.7 56.2077C163.687 56.1791 163.682 56.1485 163.683 56.1177V48.0527H162.046C161.945 48.0499 161.844 48.0669 161.75 48.1025C161.656 48.1381 161.571 48.1915 161.501 48.2594L152.638 56.3597H149.796C149.739 56.3609 149.683 56.3448 149.637 56.3138C149.59 56.2829 149.556 56.2388 149.54 56.1883C149.518 56.144 149.513 56.0944 149.524 56.047C149.536 55.9997 149.565 55.9572 149.605 55.9262L159.488 46.7875C160.041 46.2771 160.79 45.9891 161.572 45.986H166.012L166.104 46.0465C166.17 46.101 166.209 46.1771 166.213 46.2582Z" fill="#081F3F"/>
<path d="M184.982 53.194V53.3301C184.973 54.1298 184.626 54.8945 184.014 55.46C183.402 56.0254 182.574 56.3466 181.709 56.3545H169.911L169.813 56.2738C169.787 56.2493 169.766 56.2201 169.752 56.1881C169.738 56.1561 169.731 56.1219 169.732 56.0873V54.4542L169.813 54.3584C169.836 54.3341 169.865 54.3151 169.897 54.3028C169.929 54.2906 169.964 54.2854 169.999 54.2878H181.698C181.8 54.2916 181.901 54.275 181.995 54.2394C182.089 54.2037 182.174 54.1497 182.244 54.0812C182.316 54.0155 182.372 53.9368 182.41 53.8501C182.447 53.7634 182.465 53.6705 182.462 53.5771V52.8563C182.462 52.6677 182.381 52.4867 182.238 52.3522C182.167 52.2854 182.082 52.2326 181.988 52.1971C181.895 52.1615 181.794 52.144 181.693 52.1456H172.393C171.962 52.1506 171.533 52.075 171.134 51.9235C170.735 51.7719 170.373 51.5474 170.07 51.2634C169.76 50.9856 169.516 50.6522 169.351 50.2838C169.185 49.9155 169.103 49.5198 169.11 49.1212V48.975C169.11 48.1729 169.455 47.4036 170.068 46.8364C170.682 46.2692 171.514 45.9506 172.382 45.9506H184.18L184.267 46.0111C184.295 46.0347 184.316 46.0637 184.331 46.0959C184.345 46.1281 184.351 46.1628 184.349 46.1976V47.9013L184.278 47.992C184.254 48.0147 184.225 48.0327 184.193 48.0448C184.161 48.0569 184.127 48.063 184.093 48.0626H172.393C172.291 48.0556 172.189 48.0707 172.094 48.1065C171.999 48.1424 171.915 48.1981 171.848 48.2693C171.773 48.3331 171.713 48.4112 171.674 48.4982C171.634 48.5852 171.615 48.6791 171.619 48.7734V49.4841C171.616 49.5783 171.636 49.6718 171.675 49.7587C171.715 49.8455 171.773 49.9237 171.848 49.9882C171.916 50.0572 172.001 50.1108 172.096 50.1449C172.19 50.1789 172.292 50.1926 172.393 50.1847H181.698C182.566 50.1847 183.399 50.5034 184.012 51.0706C184.626 51.6377 184.971 52.407 184.971 53.2091L184.982 53.194Z" fill="#081F3F"/>
<path d="M203.75 56.2031L203.679 56.2837C203.653 56.3114 203.621 56.3337 203.586 56.3493C203.55 56.3649 203.511 56.3735 203.472 56.3745H201.415L201.312 56.2837C201.288 56.2621 201.269 56.2363 201.255 56.2077C201.242 56.1791 201.236 56.1484 201.235 56.1174V52.2159H190.403V56.2031L190.338 56.2837C190.313 56.3107 190.282 56.3327 190.247 56.3483C190.212 56.3639 190.175 56.3728 190.136 56.3745H188.063L187.954 56.2938C187.929 56.2711 187.909 56.2436 187.896 56.2132C187.882 56.1827 187.876 56.1501 187.878 56.1174V46.1672L187.965 46.0613C188.018 46.0193 188.086 45.9977 188.156 46.0008H190.229L190.316 46.0613C190.345 46.086 190.369 46.1165 190.384 46.1505C190.399 46.1845 190.405 46.2212 190.403 46.2579V50.1493H201.219V46.1571L201.295 46.0714C201.322 46.0473 201.354 46.0286 201.388 46.0164C201.423 46.0043 201.46 45.999 201.497 46.0008H203.472C203.543 45.9974 203.613 46.019 203.668 46.0613L203.728 46.1319L203.75 56.2031Z" fill="#081F3F"/>
<path d="M118.598 18.9478V30.5413C118.598 30.7125 118.524 30.8766 118.393 30.9976C118.262 31.1186 118.085 31.1865 117.899 31.1865H86.0845C85.8993 31.1865 85.7217 31.1186 85.5908 30.9976C85.4599 30.8766 85.3863 30.7125 85.3863 30.5413V3.2361C85.3863 3.06498 85.4599 2.90087 85.5908 2.77988C85.7217 2.65888 85.8993 2.5909 86.0845 2.5909H108.327C108.513 2.58977 108.692 2.52096 108.823 2.39935L110.209 1.09382C110.304 1.00276 110.368 0.887771 110.393 0.763205C110.418 0.63864 110.403 0.510015 110.35 0.393363C110.296 0.276711 110.207 0.177202 110.092 0.107249C109.978 0.0372967 109.844 -5.37939e-06 109.707 5.81867e-10H85.8772C85.0093 5.81853e-10 84.1769 0.318638 83.5631 0.885822C82.9494 1.45301 82.6046 2.22227 82.6046 3.02439V30.748C82.6046 31.5501 82.9494 32.3194 83.5631 32.8866C84.1769 33.4538 85.0093 33.7724 85.8772 33.7724H118.112C118.98 33.7724 119.812 33.4538 120.426 32.8866C121.04 32.3194 121.385 31.5501 121.385 30.748V18.9478C121.385 18.7767 121.311 18.6126 121.18 18.4916C121.049 18.3706 120.872 18.3026 120.687 18.3026H119.279C119.097 18.3066 118.924 18.3763 118.796 18.4969C118.669 18.6174 118.597 18.7793 118.598 18.9478Z" fill="#081F3F"/>
<path d="M120.725 13.8418H115.985C115.891 13.8423 115.799 13.86 115.713 13.8937C115.627 13.9275 115.549 13.9766 115.483 14.0384L103.996 24.8808C103.865 25.0024 103.686 25.0712 103.5 25.0723H101.242C101.104 25.0733 100.968 25.0364 100.853 24.9662C100.737 24.896 100.647 24.7957 100.593 24.678C100.54 24.5603 100.525 24.4306 100.551 24.3052C100.577 24.1797 100.643 24.0643 100.74 23.9735L111.54 13.8115L114.234 11.2559C114.366 11.1343 114.544 11.0655 114.73 11.0644H117.736C117.92 11.063 118.097 10.9946 118.228 10.8739C118.358 10.7532 118.432 10.5899 118.434 10.4192V4.85932C118.435 4.73036 118.394 4.60406 118.317 4.49671C118.24 4.38936 118.129 4.30589 118 4.25706C117.871 4.20824 117.729 4.1963 117.592 4.22278C117.456 4.24927 117.331 4.31297 117.234 4.40566L107.285 13.8266L95.553 24.8758C95.4881 24.9382 95.4102 24.9878 95.3239 25.0216C95.2377 25.0554 95.1449 25.0726 95.0512 25.0723H92.4714C92.3792 25.073 92.2879 25.0568 92.2025 25.0247C92.1172 24.9926 92.0396 24.9451 91.9742 24.8852C91.9088 24.8252 91.8569 24.7538 91.8214 24.6752C91.786 24.5966 91.7678 24.5123 91.7678 24.4271V11.7247C91.7678 11.5536 91.8413 11.3895 91.9722 11.2685C92.1032 11.1475 92.2807 11.0795 92.4659 11.0795H100.009C100.147 11.0795 100.282 11.1172 100.396 11.1878C100.511 11.2583 100.6 11.3587 100.653 11.4761C100.706 11.5936 100.721 11.723 100.694 11.8479C100.668 11.9729 100.602 12.0878 100.506 12.1784L98.9402 13.6603C98.8742 13.7211 98.796 13.7694 98.7099 13.8022C98.6238 13.8351 98.5315 13.8519 98.4384 13.8518H95.4658C95.2806 13.8518 95.103 13.9198 94.9721 14.0408C94.8412 14.1618 94.7676 14.3259 94.7676 14.4971V20.0922C94.766 20.2208 94.8064 20.3468 94.8834 20.4539C94.9604 20.561 95.0706 20.6442 95.1995 20.6926C95.3284 20.741 95.4701 20.7524 95.6061 20.7253C95.7422 20.6983 95.8662 20.634 95.9621 20.5408L117.419 0.237038C117.551 0.115424 117.729 0.0466171 117.916 0.045491H120.692C120.784 0.0448265 120.875 0.0608582 120.96 0.0926703C121.044 0.124482 121.122 0.171455 121.187 0.230901C121.253 0.290346 121.305 0.361103 121.34 0.439131C121.376 0.517158 121.395 0.600926 121.396 0.685656V13.2016C121.394 13.3676 121.324 13.5267 121.199 13.6459C121.074 13.7651 120.904 13.8353 120.725 13.8418Z" fill="#081F3F"/>
</svg>
