<svg width="80" height="80" viewBox="0 0 80 80" fill="none" xmlns="http://www.w3.org/2000/svg">
<circle cx="40" cy="40" r="40" fill="#081F3F"/>
<path d="M44.075 38.5875L37.325 36.6125C36.5438 36.3875 36 35.6562 36 34.8438C36 33.825 36.825 33 37.8438 33H41.9875C42.75 33 43.5 33.2312 44.125 33.6562C44.5063 33.9125 45.0188 33.85 45.3438 33.5312L47.5188 31.4062C47.9625 30.975 47.9 30.2562 47.4063 29.875C45.875 28.675 43.9625 28.0062 42 28V25C42 24.45 41.55 24 41 24H39C38.45 24 38 24.45 38 25V28H37.8438C33.8625 28 30.6625 31.4188 31.0313 35.475C31.2938 38.3563 33.4938 40.7 36.2688 41.5125L42.675 43.3875C43.4563 43.6188 44 44.3438 44 45.1562C44 46.175 43.175 47 42.1563 47H38.0125C37.25 47 36.5 46.7687 35.875 46.3438C35.4938 46.0875 34.9813 46.15 34.6563 46.4688L32.4813 48.5938C32.0375 49.025 32.1 49.7437 32.5938 50.125C34.125 51.325 36.0375 51.9937 38 52V55C38 55.55 38.45 56 39 56H41C41.55 56 42 55.55 42 55V51.9875C44.9125 51.9312 47.6438 50.2 48.6063 47.4438C49.95 43.5938 47.6938 39.6437 44.075 38.5875Z" fill="white"/>
</svg>
