<svg width="80" height="80" viewBox="0 0 80 80" fill="none" xmlns="http://www.w3.org/2000/svg">
<circle cx="40" cy="40" r="40" fill="#081F3F"/>
<path d="M36.4783 24C37.9548 24 39.2174 25.2906 39.2174 26.8V33.0407C40.2829 32.0194 42.3278 31.8941 43.6514 33.4344C45.0782 32.5414 46.965 33.3002 47.5461 34.4625C50.6174 33.9016 52 35.8341 52 39C52 39.1716 51.9873 39.8298 51.9878 40C51.9983 43.8732 50.0463 44.8059 49.5932 47.7332C49.4802 48.4627 48.85 49 48.1117 49H37.3913L37.3913 48.9999C36.2434 48.9992 35.1482 48.3369 34.651 47.2209C33.8388 45.4155 31.5861 41.2576 29.8183 40.5C28.6811 40.0127 28.0005 39.1635 28 38C27.9992 35.8611 30.1937 34.3905 32.1818 35.2426C32.7042 35.4665 33.2237 35.7621 33.7392 36.1271V26.8C33.7392 25.3344 35.0231 24 36.4783 24ZM36.5 50H48.5C49.3285 50 50 50.6716 50 51.5V54.5C50 55.3284 49.3285 56 48.5 56H36.5C35.6716 56 35 55.3284 35 54.5V51.5C35 50.6716 35.6716 50 36.5 50ZM47 51.75C46.3097 51.75 45.75 52.3096 45.75 53C45.75 53.6904 46.3097 54.25 47 54.25C47.6904 54.25 48.25 53.6904 48.25 53C48.25 52.3096 47.6904 51.75 47 51.75Z" fill="white"/>
</svg>
