<svg width="128" height="128" viewBox="0 0 128 128" fill="none" xmlns="http://www.w3.org/2000/svg">
<path d="M105.507 6.19855C105.415 2.35545 105.171 0 105.171 0H64.763H63.5422H23.1035C23.1035 0 22.8593 2.35545 22.7678 6.19855H0L0.122079 11.2814C0.152599 12.4281 1.03767 39.1438 15.4735 52.3467C20.7535 57.1506 27.1016 59.599 34.3653 59.599C35.1283 59.599 35.8913 59.568 36.6543 59.5061C40.6218 64.2169 45.7492 67.9361 52.2499 70.0126V83.5254C43.9485 88.0504 38.2413 97.2242 38.2413 107.824H89.5145C89.5145 97.3172 83.9294 88.2053 75.7501 83.6494V70.1056C82.4034 68.0291 87.5918 64.2789 91.6204 59.5061C92.2918 59.537 92.9633 59.599 93.6347 59.599C100.898 59.599 107.247 57.1816 112.526 52.3467C126.962 39.1748 127.847 12.4281 127.878 11.2814L128 6.19855H105.507ZM22.0353 45.0014C13.9781 37.6562 11.2313 23.6475 10.3462 16.1162H22.9204C23.4087 25.8789 25.1483 38.493 30.1841 49.2475C27.1321 48.5966 24.4464 47.1709 22.0353 45.0014ZM105.965 45.0014C103.645 47.109 101.051 48.4726 98.1516 49.1545C103.157 38.431 104.897 25.8479 105.385 16.1162H117.684C116.769 23.6475 114.052 37.6562 105.965 45.0014Z" fill="url(#paint0_linear)"/>
<path d="M89.5145 107.854H38.2412V116.532H89.5145V107.854Z" fill="#515151"/>
<path d="M99.2809 116.223H29.6958V128H99.2809V116.223Z" fill="#232323"/>
<path d="M66.9298 53.7105H59.9102V24.2675L55.3628 26.003V18.4408L60.9174 15.8994H66.9298V53.7105Z" fill="black"/>
<defs>
<linearGradient id="paint0_linear" x1="64" y1="0" x2="64" y2="107.824" gradientUnits="userSpaceOnUse">
<stop stop-color="#FDFF83"/>
<stop offset="1" stop-color="#FFC700"/>
</linearGradient>
</defs>
</svg>
