<svg xmlns="http://www.w3.org/2000/svg" width="25" height="26" viewBox="0 0 25 26"><g><g><path fill="#646d73" d="M17.568 21.462L12.5 19.997l-5.068 1.465a.595.595 0 0 0-.059.278v3.028h10.254V21.74a.595.595 0 0 0-.059-.278z"/></g><g><path fill="#fabe2c" d="M23.535 4.553c0 2.95-2.123 5.415-4.887 6.039 1.095-2.179 1.622-4.718 1.814-7.162h3.073zm-22.07 0V3.43h3.073c.19 2.42.715 4.984 1.818 7.163-2.766-.623-4.891-3.089-4.891-6.04zm19.06-2.588c.007-.248.032-.48.032-.733A.725.725 0 0 0 19.824.5H5.176a.725.725 0 0 0-.733.732c0 .252.025.485.032.733H.732A.732.732 0 0 0 0 2.697v1.856c0 4.09 3.276 7.411 7.313 7.625.841 1.158 1.84 2.018 2.975 2.502-.176 3.56-2.212 6.035-2.695 6.548a.52.52 0 0 0-.161.234h10.136a.52.52 0 0 0-.16-.234c-.499-.513-2.52-2.974-2.696-6.548 1.136-.485 2.14-1.344 2.982-2.503C21.728 11.96 25 8.64 25 4.553V2.697a.732.732 0 0 0-.732-.732z"/></g><g><path fill="#474f54" d="M18.36 25.5H6.64a.732.732 0 1 1 0-1.465h11.72a.732.732 0 1 1 0 1.465z"/></g><g><g><text dominant-baseline="text-before-edge" style="line-height:30px;font-kerning:normal" fill="#fff" font-family="'Poppins','Poppins-Bold'" font-size="9" font-style="none" font-weight="700" letter-spacing=".09" transform="translate(10 1)"><tspan>2</tspan></text></g></g></g></svg>