<svg width="128" height="128" viewBox="0 0 128 128" fill="none" xmlns="http://www.w3.org/2000/svg">
<path d="M105.507 6.19855C105.415 2.35545 105.171 0 105.171 0H64.763H63.5422H23.1035C23.1035 0 22.8593 2.35545 22.7678 6.19855H0L0.122079 11.2814C0.152599 12.4281 1.03767 39.1438 15.4735 52.3467C20.7535 57.1506 27.1016 59.599 34.3653 59.599C35.1283 59.599 35.8913 59.568 36.6543 59.5061C40.6218 64.2169 45.7492 67.9361 52.2499 70.0126V83.5254C43.9485 88.0504 38.2413 97.2242 38.2413 107.824H89.5145C89.5145 97.3172 83.9294 88.2053 75.7501 83.6494V70.1056C82.4034 68.0291 87.5918 64.2789 91.6204 59.5061C92.2918 59.537 92.9633 59.599 93.6347 59.599C100.898 59.599 107.247 57.1816 112.526 52.3467C126.962 39.1748 127.847 12.4281 127.878 11.2814L128 6.19855H105.507ZM22.0353 45.0014C13.9781 37.6562 11.2313 23.6475 10.3462 16.1162H22.9204C23.4087 25.8789 25.1483 38.493 30.1841 49.2475C27.1321 48.5966 24.4464 47.1709 22.0353 45.0014ZM105.965 45.0014C103.645 47.109 101.051 48.4726 98.1516 49.1545C103.157 38.431 104.897 25.8479 105.385 16.1162H117.684C116.769 23.6475 114.052 37.6562 105.965 45.0014Z" fill="url(#paint0_linear)"/>
<path d="M89.5144 107.854H38.2412V116.532H89.5144V107.854Z" fill="#515151"/>
<path d="M99.2809 116.223H29.6958V128H99.2809V116.223Z" fill="#232323"/>
<path d="M53.2264 47.6975L66.0141 30.6205C66.594 29.8456 67.0518 29.0708 67.357 28.265C67.6622 27.4592 67.8453 26.7154 67.8453 26.0025V25.9405C67.8453 24.9178 67.5096 24.112 66.8687 23.5851C66.2278 23.0272 65.2817 22.7483 64.0914 22.7483C62.9316 22.7483 61.9855 23.1202 61.2836 23.895C60.5511 24.6698 60.1238 25.7546 59.9712 27.1803V27.2113H52.7686V27.1803C52.9212 24.8248 53.4705 22.7793 54.4471 21.0747C55.4238 19.3701 56.7056 18.0684 58.3537 17.1696C60.0017 16.2708 61.894 15.8369 64.0303 15.8369C66.3498 15.8369 68.3336 16.2088 69.9817 16.9836C71.6298 17.7585 72.8811 18.8742 73.7356 20.3619C74.5902 21.8495 75.0175 23.6161 75.0175 25.6926V25.7236C75.0175 27.4282 74.7123 29.1328 74.1324 30.8374C73.5525 32.542 72.7285 34.0606 71.6603 35.4243L62.4738 47.2016H75.2006V54.082H53.1653V47.6975H53.2264Z" fill="black"/>
<defs>
<linearGradient id="paint0_linear" x1="64" y1="0" x2="64" y2="107.824" gradientUnits="userSpaceOnUse">
<stop stop-color="#E7FEFF"/>
<stop offset="1" stop-color="#D2DCFF"/>
</linearGradient>
</defs>
</svg>
