<svg width="128" height="128" viewBox="0 0 128 128" fill="none" xmlns="http://www.w3.org/2000/svg">
<path d="M105.507 6.19855C105.415 2.35545 105.171 0 105.171 0H64.763H63.5422H23.1035C23.1035 0 22.8593 2.35545 22.7678 6.19855H0L0.122079 11.2814C0.152599 12.4281 1.03767 39.1438 15.4735 52.3467C20.7535 57.1506 27.1016 59.599 34.3653 59.599C35.1283 59.599 35.8913 59.568 36.6543 59.5061C40.6218 64.2169 45.7492 67.9361 52.2499 70.0126V83.5254C43.9485 88.0504 38.2413 97.2242 38.2413 107.824H89.5145C89.5145 97.3172 83.9294 88.2053 75.7501 83.6494V70.1056C82.4034 68.0291 87.5918 64.2789 91.6204 59.5061C92.2918 59.537 92.9633 59.599 93.6347 59.599C100.898 59.599 107.247 57.1816 112.526 52.3467C126.962 39.1748 127.847 12.4281 127.878 11.2814L128 6.19855H105.507ZM22.0353 45.0015C13.9781 37.6562 11.2313 23.6475 10.3462 16.1162H22.9204C23.4087 25.8789 25.1483 38.493 30.1841 49.2475C27.1321 48.5966 24.4464 47.1709 22.0353 45.0015ZM105.965 45.0015C103.645 47.109 101.051 48.4726 98.1516 49.1545C103.157 38.431 104.897 25.8479 105.385 16.1162H117.684C116.769 23.6475 114.052 37.6562 105.965 45.0015Z" fill="url(#paint0_linear)"/>
<path d="M89.5144 107.854H38.2412V116.532H89.5144V107.854Z" fill="#515151"/>
<path d="M99.2809 116.223H29.6958V128H99.2809V116.223Z" fill="#232323"/>
<path d="M58.1708 53.2454C56.4007 52.4086 54.9968 51.1999 53.9591 49.5883C52.9214 47.9766 52.3416 46.0861 52.25 43.8856H59.5137C59.6053 44.6604 59.8494 45.3423 60.1851 45.8691C60.5209 46.427 60.9787 46.8299 61.528 47.1088C62.0774 47.3878 62.7183 47.5427 63.4202 47.5427C64.7631 47.5427 65.7703 47.1708 66.5027 46.396C67.2352 45.6212 67.6014 44.5674 67.6014 43.2038V42.305C67.6014 40.8793 67.2962 39.7636 66.7164 38.9578C66.1365 38.1519 65.2819 37.78 64.1832 37.78H61.0397V30.9926H64.1832C65.0683 30.9926 65.7703 30.6517 66.2586 29.9699C66.7469 29.288 66.991 28.3272 66.991 27.0875V26.4367C66.991 25.259 66.7164 24.3912 66.1975 23.7403C65.6482 23.1205 64.9157 22.7795 63.9391 22.7795C63.2982 22.7795 62.7183 22.9345 62.1994 23.2754C61.6806 23.6163 61.2533 24.0812 60.8871 24.7011C60.5209 25.3209 60.2767 26.0958 60.1241 26.9636H52.8909C53.1046 24.6701 53.715 22.6556 54.7221 20.982C55.7293 19.3084 57.0721 18.0377 58.7202 17.1699C60.3683 16.3021 62.1994 15.8682 64.2137 15.8682C67.5099 15.8682 70.0735 16.736 71.8742 18.4406C73.6749 20.1452 74.5905 22.5626 74.5905 25.7239V26.8706C74.5905 28.6372 74.1632 30.1558 73.2781 31.4575C72.393 32.7592 71.1723 33.72 69.5547 34.3708C71.3554 34.7737 72.7288 35.7345 73.7054 37.2222C74.682 38.7098 75.1703 40.6004 75.1703 42.9248V44.0716C75.1703 46.272 74.7431 48.1626 73.8885 49.7122C73.034 51.2619 71.7827 52.4706 70.1346 53.2764C68.4865 54.0822 66.5333 54.4851 64.2137 54.4851C61.9248 54.5161 59.9105 54.0822 58.1708 53.2454Z" fill="black"/>
<defs>
<linearGradient id="paint0_linear" x1="64" y1="0" x2="64" y2="107.824" gradientUnits="userSpaceOnUse">
<stop stop-color="#D67E00"/>
<stop offset="1" stop-color="#E95C0E"/>
</linearGradient>
</defs>
</svg>
